<?xml version="1.0" standalone="no"?>
<!DOCTYPE svg PUBLIC "-//W3C//DTD SVG 20010904//EN"
 "http://www.w3.org/TR/2001/REC-SVG-20010904/DTD/svg10.dtd">
<svg version="1.0" xmlns="http://www.w3.org/2000/svg"
 width="500.000000pt" height="500.000000pt" viewBox="0 0 500.000000 500.000000"
 preserveAspectRatio="xMidYMid meet">

<g transform="translate(0.000000,500.000000) scale(0.100000,-0.100000)"
fill="#000000" stroke="none">
<path d="M0 2500 l0 -2500 2500 0 2500 0 0 2500 0 2500 -2500 0 -2500 0 0
-2500z m1916 2120 c13 -25 25 -61 29 -80 l6 -35 -18 28 c-10 15 -26 27 -36 27
-21 0 -40 -44 -32 -74 3 -11 -3 -5 -14 14 -23 41 -36 109 -27 145 6 22 11 26
38 23 27 -2 36 -11 54 -48z m1066 -28 c-3 -52 -22 -104 -30 -82 -3 8 -11 18
-17 22 -9 6 -11 18 -5 43 17 73 57 86 52 17z m-197 -117 c54 -8 102 -15 107
-15 4 0 8 -8 8 -17 0 -10 4 -25 9 -32 8 -12 12 -10 21 11 l12 25 67 -17 c81
-21 192 -60 289 -102 58 -25 72 -36 69 -50 -4 -15 -2 -16 14 -7 16 8 31 3 77
-22 90 -51 191 -118 264 -175 56 -43 65 -54 53 -64 -8 -6 -26 -32 -40 -56
l-26 -45 -47 39 c-143 120 -390 254 -584 316 -428 140 -910 121 -1303 -49 -16
-7 -50 -21 -75 -31 -25 -9 -52 -22 -60 -29 -8 -6 -33 -20 -55 -30 -22 -11 -48
-26 -58 -34 -21 -17 -26 -13 -39 36 -21 80 -20 81 67 127 101 51 181 88 267
120 l67 25 37 -52 38 -52 9 35 c5 19 7 47 4 63 -5 34 1 37 123 62 214 44 471
52 685 20z m735 -5 c0 -17 -27 -65 -45 -80 -18 -15 -55 -24 -55 -14 0 12 24
51 48 77 26 27 52 36 52 17z m-2197 -81 c12 -6 29 -20 37 -32 7 -12 19 -32 27
-44 13 -20 13 -21 -5 -16 -35 9 -47 -31 -27 -86 21 -54 50 -107 78 -138 11
-13 19 -24 16 -26 -2 -2 -19 -15 -37 -30 -40 -32 -56 -34 -47 -7 4 14 2 20 -8
20 -10 0 -14 -10 -13 -31 1 -24 -6 -37 -27 -53 -24 -18 -29 -19 -37 -6 -7 11
-10 12 -10 2 0 -7 -4 -10 -10 -7 -6 3 -7 -1 -4 -9 3 -9 11 -13 18 -10 6 4 -17
-21 -52 -55 -34 -33 -69 -61 -77 -61 -9 0 -15 -9 -15 -22 -1 -16 -5 -12 -15
16 -8 22 -13 42 -12 45 1 3 -4 16 -10 27 -10 17 -9 25 2 40 13 17 14 18 15 2
0 -10 7 -18 15 -18 18 0 20 17 3 22 -8 3 -8 9 0 24 6 10 12 13 12 6 0 -7 4
-11 10 -7 5 3 7 12 4 19 -7 19 16 32 27 15 7 -11 9 -10 9 5 0 29 78 96 111 96
15 0 29 -5 31 -11 2 -7 12 0 21 15 10 14 13 26 7 26 -5 0 -10 -4 -10 -10 0 -5
-12 -10 -26 -10 -22 0 -25 2 -14 15 7 8 18 15 25 15 7 0 18 7 25 15 9 11 6 21
-19 53 -56 69 -87 182 -59 210 14 14 12 14 41 1z m2707 -239 c11 -11 20 -25
20 -31 0 -19 -50 -77 -91 -104 l-41 -27 18 30 c15 26 16 33 4 47 -11 13 -24
16 -59 11 l-44 -6 19 21 c24 27 114 79 137 79 9 0 26 -9 37 -20z m-3102 -130
c46 -33 50 -41 27 -60 -38 -32 8 -132 89 -192 25 -18 45 -35 46 -38 0 -6 -42
-60 -77 -97 -13 -13 -23 -27 -23 -31 -1 -4 -9 -17 -19 -29 -19 -23 -61 -32
-61 -13 0 6 5 10 12 10 9 0 9 3 1 11 -9 9 -19 9 -42 -1 -35 -14 -58 -6 -40 16
6 8 22 14 35 14 13 0 33 9 45 21 l21 21 -31 -7 c-35 -7 -44 9 -10 18 12 3 18
10 14 17 -10 15 15 42 33 35 20 -7 82 5 82 16 0 5 -11 9 -25 9 -14 0 -25 2
-25 4 0 2 -3 11 -6 19 -4 10 2 16 16 19 19 2 13 10 -36 43 -58 40 -107 104
-119 157 -5 19 -1 32 14 47 27 27 30 27 79 -9z m3155 -310 l49 -65 -23 -15
c-13 -8 -38 -27 -55 -42 l-31 -27 -41 58 c-22 32 -88 108 -147 169 l-106 110
53 16 c29 9 60 20 68 26 12 8 33 -8 100 -78 47 -48 107 -117 133 -152z m-3113
34 c0 -8 -5 -12 -10 -9 -6 4 -8 11 -5 16 9 14 15 11 15 -7z m3419 -23 c17 -11
7 -45 -22 -72 -23 -22 -96 -61 -137 -74 -21 -7 -20 -3 13 27 20 20 37 41 37
47 0 15 -45 32 -67 24 -13 -4 -11 0 4 11 50 37 141 57 172 37z m-1759 -21 c0
-4 18 -15 39 -25 21 -9 56 -35 77 -56 46 -47 56 -48 174 -12 10 3 6 11 -15 28
l-30 25 35 -2 c19 -1 49 -12 67 -25 24 -17 45 -23 86 -23 167 0 372 -104 442
-225 14 -23 43 -55 65 -70 52 -36 120 -110 153 -165 15 -26 33 -83 43 -134 27
-137 17 -183 -136 -613 -72 -202 -147 -397 -167 -433 -102 -188 -273 -324
-473 -375 -88 -23 -247 -23 -325 -1 -69 21 -146 58 -193 93 -19 14 -37 21 -41
17 -5 -5 -52 -135 -105 -289 -53 -154 -108 -297 -122 -318 -109 -165 -371
-124 -408 63 -4 21 -15 28 -53 38 -63 17 -106 52 -132 105 -42 87 -70 -6 407
1362 159 457 296 846 305 866 31 75 136 159 199 159 13 0 34 6 48 13 25 13 60
11 60 -3z m-1800 -150 c0 -5 -4 -10 -10 -10 -5 0 -10 5 -10 10 0 6 5 10 10 10
6 0 10 -4 10 -10z m3384 -35 c49 -83 129 -250 151 -315 l22 -65 -55 -38 c-30
-21 -55 -37 -56 -35 -2 2 -25 59 -51 127 -27 68 -76 169 -108 225 -42 72 -55
102 -45 105 7 3 33 13 58 22 25 9 48 17 52 18 3 0 18 -19 32 -44z m-3291 9 c3
-3 3 -12 0 -20 -6 -17 -37 -18 -65 -3 -17 9 -18 13 -7 20 16 10 63 12 72 3z
m-360 -15 c25 -13 97 -80 97 -90 0 -17 -76 13 -106 42 -49 48 -44 75 9 48z
m267 -9 c0 -4 -10 -10 -22 -13 -18 -5 -19 -8 -9 -21 9 -11 18 -13 30 -7 18 10
51 -3 51 -19 0 -6 -11 -10 -24 -10 -20 0 -23 -4 -20 -35 2 -25 -2 -35 -12 -35
-17 0 -19 -20 -1 -20 6 -1 1 -10 -12 -20 -13 -12 -21 -26 -18 -35 4 -8 0 -20
-7 -27 -7 -7 -11 -19 -8 -26 2 -6 -9 -17 -25 -23 -27 -10 -28 -11 -8 -25 19
-15 19 -16 1 -29 -10 -7 -15 -18 -12 -23 10 -17 -6 -43 -33 -54 -21 -9 -23
-12 -8 -15 28 -7 20 -53 -13 -66 -12 -4 -12 -6 2 -6 11 -1 15 -7 11 -21 -3
-11 -8 -20 -12 -20 -3 0 -6 -12 -7 -27 0 -16 -8 -82 -18 -148 -9 -66 -18 -164
-21 -218 -5 -122 17 -341 48 -467 l23 -95 -68 0 -68 0 -19 85 c-52 221 -56
510 -11 775 5 33 10 63 10 68 0 4 16 7 35 7 41 0 45 11 10 30 -26 14 -33 34
-15 45 6 4 10 12 9 18 -7 55 18 104 47 93 20 -8 17 4 -3 20 -15 11 -16 16 -5
33 6 12 12 28 12 36 0 21 30 65 44 65 6 0 16 11 22 24 9 20 9 23 -2 19 -18 -7
-18 11 2 48 11 23 20 29 35 24 11 -4 19 -2 19 5 0 8 9 10 25 6 15 -4 25 -2 25
5 0 6 -14 9 -32 7 -40 -4 -49 21 -19 51 12 12 21 27 21 34 0 8 3 16 6 19 7 8
44 -2 44 -12z m3828 -329 c23 -14 9 -54 -27 -78 -42 -29 -93 -43 -151 -43
l-45 0 40 19 c55 24 72 47 57 72 -10 16 -8 20 21 28 41 12 88 13 105 2z m-222
-200 c52 -237 66 -479 40 -697 -19 -158 -20 -162 -51 -157 -13 3 -31 0 -41 -5
-16 -9 -13 -12 20 -26 35 -15 37 -18 31 -48 -10 -48 -79 -253 -108 -323 -25
-59 -27 -60 -62 -58 l-36 3 20 -27 c12 -14 21 -29 21 -34 0 -15 -74 -131 -86
-136 -7 -2 -11 -10 -8 -17 3 -7 -4 -21 -16 -31 -11 -10 -20 -24 -20 -32 0 -7
-7 -16 -15 -19 -8 -4 -22 -20 -30 -38 -8 -17 -29 -49 -46 -69 l-31 -38 -39 36
c-21 19 -43 35 -49 35 -5 0 13 28 40 63 27 34 72 98 99 142 27 44 55 87 63 96
7 9 14 22 16 30 2 8 12 32 24 54 26 52 75 173 103 260 101 308 111 721 25
1031 -11 38 -20 72 -20 75 0 2 31 4 69 5 l70 0 17 -75z m-3990 4 c18 -3 39
-14 48 -24 16 -17 15 -19 -9 -24 -36 -6 -94 8 -114 28 -14 14 -14 17 -1 25 8
5 22 8 30 6 8 -3 29 -7 46 -11z m4182 -929 c15 -14 15 -18 2 -26 -25 -16 -140
17 -140 41 0 18 117 6 138 -15z m-3893 -143 c39 -112 81 -207 131 -295 24 -43
44 -81 44 -85 0 -7 -50 -27 -110 -44 -31 -9 -222 419 -191 429 7 2 31 19 54
37 23 19 43 34 43 34 1 1 14 -34 29 -76z m-273 15 c4 -27 40 -38 83 -27 29 8
29 8 10 -7 -66 -53 -196 -77 -219 -41 -16 24 1 47 54 75 55 28 68 28 72 0z
m3955 -358 c33 -20 70 -67 60 -76 -11 -11 -49 8 -88 43 -55 50 -36 73 28 33z
m-3405 -177 c30 -40 91 -113 137 -163 45 -49 76 -90 68 -90 -7 0 -36 -11 -63
-25 l-49 -25 -53 53 c-29 28 -85 93 -124 143 l-72 92 -36 -29 c-43 -34 -128
-69 -169 -69 -65 0 -57 52 17 105 40 27 44 28 53 12 6 -10 22 -17 42 -17 36 0
145 48 166 74 8 9 17 15 21 14 4 -2 32 -36 62 -75z m2908 -223 l18 -26 -61
-60 c-67 -65 -163 -147 -213 -182 l-31 -21 -33 51 c-28 43 -31 52 -18 59 36
20 179 142 238 203 l65 66 8 -32 c5 -18 17 -44 27 -58z m202 -55 c28 -36 50
-94 43 -116 -9 -27 -41 -42 -63 -30 -24 13 -102 98 -102 111 0 6 4 8 10 5 5
-3 19 -1 30 5 23 12 26 49 8 83 -9 18 -6 17 22 -7 18 -15 42 -38 52 -51z
m-2687 -131 c253 -174 519 -277 822 -320 90 -12 161 -15 303 -11 102 3 201 9
220 12 69 13 205 43 223 50 15 6 17 1 17 -36 0 -24 3 -53 6 -65 5 -19 -3 -23
-83 -42 -136 -32 -212 -42 -371 -49 -145 -6 -332 6 -433 28 l-49 11 0 49 c0
58 -14 57 -31 -2 -9 -28 -17 -38 -28 -35 -116 31 -253 77 -321 107 l-85 38 3
38 3 38 -27 -26 -26 -27 -61 35 c-85 48 -181 113 -253 171 l-61 50 -36 -49
c-37 -48 -99 -92 -149 -104 -19 -5 -32 -1 -47 14 -12 12 -21 26 -21 31 0 6 21
33 47 61 42 45 48 48 63 34 38 -35 113 0 180 84 l33 40 46 -38 c25 -21 78 -60
116 -87z m2102 -139 c9 -15 7 -22 -12 -37 -13 -10 -27 -18 -33 -18 -5 0 -24
-10 -43 -23 -41 -27 -179 -91 -267 -123 l-62 -22 -17 31 c-9 18 -22 42 -30 54
-14 20 -12 22 69 52 128 49 232 99 318 153 l44 28 11 -38 c7 -21 16 -46 22
-57z m159 -78 c84 -175 -13 -212 -101 -39 -19 39 -15 48 14 32 32 -17 44 -3
38 46 -6 59 7 48 49 -39z m-2116 -124 c0 -41 -78 -128 -97 -109 -13 13 67 126
89 126 4 0 8 -8 8 -17z m1526 -153 c8 0 18 10 23 23 8 21 9 20 24 -16 37 -87
34 -157 -7 -157 -40 0 -76 60 -90 150 l-7 45 21 -23 c11 -12 27 -22 36 -22z
m-1036 -23 c0 -51 -19 -97 -41 -97 -14 0 -11 74 6 114 22 51 35 45 35 -17z"/>
<path d="M1270 4032 c0 -12 19 -26 26 -19 2 2 -2 10 -11 17 -9 8 -15 8 -15 2z"/>
<path d="M990 3691 c0 -6 -15 -11 -32 -12 -28 0 -30 -2 -13 -9 11 -5 33 -9 48
-9 21 -1 28 3 25 16 -3 18 -28 31 -28 14z"/>
<path d="M950 3636 c0 -2 7 -7 16 -10 8 -3 12 -2 9 4 -6 10 -25 14 -25 6z"/>
<path d="M945 3580 c3 -5 8 -10 11 -10 2 0 4 5 4 10 0 6 -5 10 -11 10 -5 0 -7
-4 -4 -10z"/>
<path d="M2990 3014 c-54 -23 -97 -61 -125 -109 -23 -38 -235 -640 -235 -666
0 -9 28 -8 45 3 6 3 29 11 53 17 28 8 61 29 94 61 29 28 48 50 43 50 -6 0 -4
4 3 9 7 4 14 14 15 22 2 8 7 21 12 29 16 25 108 297 119 353 3 12 9 36 14 52
4 17 8 50 8 75 -1 25 5 51 12 58 6 7 12 24 12 38 0 28 -18 31 -70 8z"/>
<path d="M775 3440 c4 -6 11 -8 16 -5 14 9 11 15 -7 15 -8 0 -12 -5 -9 -10z"/>
<path d="M657 3203 c-4 -3 -7 -11 -7 -17 0 -6 5 -5 12 2 6 6 9 14 7 17 -3 3
-9 2 -12 -2z"/>
<path d="M685 3130 c3 -5 8 -10 11 -10 2 0 4 5 4 10 0 6 -5 10 -11 10 -5 0 -7
-4 -4 -10z"/>
<path d="M637 3074 c-11 -11 3 -24 18 -18 8 4 12 10 9 15 -6 11 -18 12 -27 3z"/>
<path d="M625 3000 c3 -5 8 -10 11 -10 2 0 4 5 4 10 0 6 -5 10 -11 10 -5 0 -7
-4 -4 -10z"/>
<path d="M4095 1400 c-4 -6 3 -10 14 -10 25 0 27 6 6 13 -8 4 -17 2 -20 -3z"/>
<path d="M4030 1389 c0 -5 5 -7 10 -4 6 3 10 8 10 11 0 2 -4 4 -10 4 -5 0 -10
-5 -10 -11z"/>
<path d="M4025 1350 c-3 -5 -1 -10 4 -10 6 0 11 5 11 10 0 6 -2 10 -4 10 -3 0
-8 -4 -11 -10z"/>
<path d="M3970 1329 c0 -10 27 -19 34 -12 11 12 6 19 -14 19 -11 0 -20 -3 -20
-7z"/>
<path d="M4010 1250 c0 -5 5 -10 10 -10 6 0 10 5 10 10 0 6 -4 10 -10 10 -5 0
-10 -4 -10 -10z"/>
</g>
</svg>
